<svg width="273" height="32" viewBox="0 0 273 32" fill="none" xmlns="http://www.w3.org/2000/svg">
    <g clip-path="url(#7oy6slvhva)">
        <path d="M13.485 20.455c-2.605-4.571-9.156-4.571-11.761 0-2.605 4.571.651 10.305 5.9 10.305 5.21 0 8.505-5.734 5.861-10.305z" fill="#DC2728"/>
        <path d="M33.598 22.935 21.186 3.332A5.208 5.208 0 0 0 16.55.892c-.92.038-1.8.31-2.605.813a5.272 5.272 0 0 0-2.299 3.331c-.306 1.395-.038 2.79.728 3.99l12.374 19.642c.958 1.511 2.644 2.441 4.406 2.441h.23c.92-.039 1.8-.349 2.605-.852a5.272 5.272 0 0 0 2.299-3.332c.306-1.356.038-2.79-.69-3.99z" fill="#0d54ed"/>
        <path d="M51.374 25.801c-3.678 0-5.67-1.976-5.67-5.579v-5.036c0-3.603 2.03-5.579 5.67-5.579 2.145 0 3.716.814 4.789 2.519.038.077.115.193.191.348v.078l-2.337 1.666-.191-.233a.534.534 0 0 0-.115-.155c-.651-.89-1.418-1.317-2.375-1.317-1.073 0-2.337.504-2.337 3.022v4.455c0 2.48 1.264 3.022 2.337 3.022.919 0 1.685-.426 2.375-1.317a.85.85 0 0 0 .115-.194l.115-.194 2.375 1.666a.724.724 0 0 1-.192.387c-1.034 1.628-2.605 2.441-4.75 2.441zM63.786 25.801c-3.754 0-5.785-1.976-5.785-5.579v-5.036c0-3.603 2.07-5.579 5.785-5.579 3.755 0 5.785 1.976 5.785 5.58v5.035c0 3.603-2.03 5.58-5.785 5.58zm0-13.327c-1.647 0-2.49 1.008-2.49 3.022v4.455c0 1.976.843 3.022 2.49 3.022 1.648 0 2.49-1.007 2.49-3.022v-4.494c0-1.976-.842-2.983-2.49-2.983zM80.528 25.491l-4.75-10.382v10.344l-3.18.038-.039-15.573 3.563-.04 4.483 9.764V9.918l3.218-.04.038 15.613h-3.333zM168.373 25.491l-4.75-10.382v10.344l-3.218.038-.039-15.573 3.601-.04 4.483 9.764V9.918l3.179-.04.039 15.613h-3.295zM94.281 25.453h-3.64v.078h3.64v-.078z" fill="#111827"/>
        <path d="M90.642 25.491 86.045 9.918l3.486-.04 2.988 11.39 2.988-11.35 3.295-.04-4.52 15.613h-3.64zM101.062 25.491l-.038-15.573 9.96-.04.039 2.829-6.743.039.039 3.448h5.631l.038 2.789-5.708.039.039 3.641 6.665-.038.039 2.866h-9.961zM223.118 25.491l-.038-15.573 9.999-.04.038 2.829-6.742.039.038 3.448h5.593l.039 2.789-5.67.039.038 3.641 6.666-.038.038 2.866h-9.999zM120.983 25.491l-2.72-5.772-1.187.039.038 5.733-3.295.04-.038-15.613 4.942-.04c3.869 0 5.708 1.628 5.708 4.921 0 2.363-.919 3.835-2.758 4.533l-.268.077 3.371 6.121h-3.793v-.039zm-3.907-8.484 1.609-.039c1.571 0 2.337-.697 2.337-2.091 0-1.434-.766-2.131-2.337-2.131h-1.609v4.261zM243.078 25.491l-2.72-5.772-1.188.039.038 5.733-3.294.04-.039-15.613 4.942-.04c3.87 0 5.709 1.628 5.709 4.921 0 2.363-.92 3.835-2.759 4.533l-.268.077 3.371 6.121h-3.792v-.039zm-3.908-8.484 1.609-.039c1.571 0 2.337-.697 2.337-2.091 0-1.434-.766-2.131-2.337-2.131h-1.609v4.261zM132.132 25.802c-2.452 0-4.291-.659-5.632-2.053-.077-.078-.153-.194-.23-.31l1.992-2.131c.192.155.307.271.345.31.958.852 2.069 1.278 3.295 1.278 1.264 0 2.03-.658 2.03-1.82 0-1.124-.958-1.512-2.72-1.86-3.371-.581-4.712-1.937-4.712-4.843 0-2.944 2.03-4.804 5.134-4.804 2.145 0 3.716.543 4.865 1.666.077.078.192.194.306.349l-1.992 2.13c-.191-.116-.344-.27-.383-.31-.689-.62-1.532-.89-2.567-.89-1.264 0-2.03.658-2.03 1.82 0 1.163 1.034 1.55 2.72 1.86 3.333.542 4.712 1.937 4.712 4.843 0 2.867-2.03 4.765-5.133 4.765zM139.602 25.491l-.038-15.573 3.295-.04.038 15.613h-3.295zM268.401 25.491V9.918l3.256-.04.038 15.613h-3.294zM151.632 25.801c-3.755 0-5.785-1.976-5.785-5.579v-5.036c0-3.603 2.068-5.579 5.785-5.579 3.716 0 5.784 1.976 5.784 5.58v5.035c0 3.603-2.068 5.58-5.784 5.58zm0-13.327c-1.648 0-2.491 1.008-2.491 3.022v4.455c0 1.976.843 3.022 2.491 3.022 1.647 0 2.49-1.007 2.49-3.022v-4.494c-.039-1.976-.843-2.983-2.49-2.983zM188.256 25.491l-.038-12.164-3.678 12.164h-2.49l-3.716-12.203v12.165l-3.218.038-.039-15.573 5.019-.04 3.256 10.848L186.57 9.88h4.904l.038 15.612h-3.256z" fill="#111827"/>
        <path d="M184.502 25.453h-2.452v.078h2.452v-.078zM203.503 25.491l-.727-2.557-5.019.039-.651 2.518-3.333.039 4.673-15.651 3.755-.04 4.75 15.652h-3.448zm-4.98-5.23 3.601-.039-1.839-7.09-1.762 7.13zM262.999 25.491l-.728-2.556-5.018.038-.652 2.518-3.333.04 4.674-15.613 3.755-.04 4.75 15.652h-3.448v-.039zm-4.98-5.23 3.601-.038-1.839-7.09-1.762 7.129zM220.858 25.453h-3.946v.078h3.946v-.078z" fill="#111827"/>
        <path d="m216.912 25.491-4.061-6.585h-.383l.038 6.547-3.294.038-.039-15.573 3.295-.04.038 6.548.383-.039 3.946-6.508h3.831l-5.018 7.632 5.287 7.98h-4.023z" fill="#111827"/>
        <path d="M220.628 9.879h-3.754v.077h3.754V9.88zM249.897 25.608c-1.034 0-1.762-.737-1.762-1.783 0-1.007.728-1.743 1.762-1.743.996 0 1.762.775 1.762 1.743 0 1.008-.766 1.783-1.762 1.783z" fill="#111827"/>
    </g>
    <defs>
        <clipPath id="7oy6slvhva">
            <path fill="#fff" d="M0 0h272.5v32H0z"/>
        </clipPath>
    </defs>
</svg>
